<mxfile host="app.diagrams.net" agent="Mozilla/5.0 (Windows NT 10.0; Win64; x64) AppleWebKit/537.36 (KHTML, like Gecko) Chrome/129.0.0.0 Safari/537.36" version="24.7.17" pages="2">
  <diagram name="Страница — 1" id="FIlypT9NXCq33b7IDFKb">
    <mxGraphModel dx="1434" dy="756" grid="1" gridSize="10" guides="1" tooltips="1" connect="1" arrows="1" fold="1" page="1" pageScale="1" pageWidth="827" pageHeight="1169" math="0" shadow="0">
      <root>
        <mxCell id="0" />
        <mxCell id="1" parent="0" />
        <mxCell id="-fS4lJECkJdT4lTp00I2-3" style="edgeStyle=orthogonalEdgeStyle;rounded=0;orthogonalLoop=1;jettySize=auto;html=1;exitX=0.5;exitY=1;exitDx=0;exitDy=0;entryX=0.5;entryY=0;entryDx=0;entryDy=0;endArrow=none;endFill=0;" parent="1" source="-fS4lJECkJdT4lTp00I2-1" target="-fS4lJECkJdT4lTp00I2-2" edge="1">
          <mxGeometry relative="1" as="geometry" />
        </mxCell>
        <mxCell id="-fS4lJECkJdT4lTp00I2-1" value="Начало" style="rounded=1;whiteSpace=wrap;html=1;arcSize=50;" parent="1" vertex="1">
          <mxGeometry x="40" y="40" width="140" height="60" as="geometry" />
        </mxCell>
        <mxCell id="-fS4lJECkJdT4lTp00I2-5" style="edgeStyle=orthogonalEdgeStyle;rounded=0;orthogonalLoop=1;jettySize=auto;html=1;exitX=0.5;exitY=1;exitDx=0;exitDy=0;entryX=0.5;entryY=0;entryDx=0;entryDy=0;endArrow=none;endFill=0;" parent="1" source="-fS4lJECkJdT4lTp00I2-2" target="-fS4lJECkJdT4lTp00I2-4" edge="1">
          <mxGeometry relative="1" as="geometry" />
        </mxCell>
        <mxCell id="-fS4lJECkJdT4lTp00I2-2" value="long double x, res, std_res;" style="rounded=0;whiteSpace=wrap;html=1;" parent="1" vertex="1">
          <mxGeometry x="40" y="130" width="140" height="60" as="geometry" />
        </mxCell>
        <mxCell id="hLjkEMqLYi9RJDod02WA-4" style="edgeStyle=orthogonalEdgeStyle;rounded=0;orthogonalLoop=1;jettySize=auto;html=1;exitX=0.5;exitY=1;exitDx=0;exitDy=0;entryX=0.5;entryY=0;entryDx=0;entryDy=0;endArrow=none;endFill=0;" parent="1" source="-fS4lJECkJdT4lTp00I2-4" edge="1">
          <mxGeometry relative="1" as="geometry">
            <mxPoint x="110" y="310" as="targetPoint" />
          </mxGeometry>
        </mxCell>
        <mxCell id="-fS4lJECkJdT4lTp00I2-4" value="long int n;" style="rounded=0;whiteSpace=wrap;html=1;" parent="1" vertex="1">
          <mxGeometry x="40" y="220" width="140" height="60" as="geometry" />
        </mxCell>
        <mxCell id="hLjkEMqLYi9RJDod02WA-5" style="edgeStyle=orthogonalEdgeStyle;rounded=0;orthogonalLoop=1;jettySize=auto;html=1;exitX=0.5;exitY=1;exitDx=0;exitDy=0;entryX=0.5;entryY=0;entryDx=0;entryDy=0;endArrow=none;endFill=0;" parent="1" edge="1">
          <mxGeometry relative="1" as="geometry">
            <mxPoint x="110" y="370" as="sourcePoint" />
            <mxPoint x="110" y="400" as="targetPoint" />
          </mxGeometry>
        </mxCell>
        <mxCell id="hLjkEMqLYi9RJDod02WA-6" style="edgeStyle=orthogonalEdgeStyle;rounded=0;orthogonalLoop=1;jettySize=auto;html=1;exitX=0.5;exitY=1;exitDx=0;exitDy=0;entryX=0.5;entryY=0;entryDx=0;entryDy=0;endArrow=none;endFill=0;" parent="1" target="-fS4lJECkJdT4lTp00I2-8" edge="1">
          <mxGeometry relative="1" as="geometry">
            <mxPoint x="110" y="460" as="sourcePoint" />
          </mxGeometry>
        </mxCell>
        <mxCell id="hLjkEMqLYi9RJDod02WA-7" style="edgeStyle=orthogonalEdgeStyle;rounded=0;orthogonalLoop=1;jettySize=auto;html=1;exitX=0.5;exitY=1;exitDx=0;exitDy=0;entryX=0.5;entryY=0;entryDx=0;entryDy=0;endArrow=none;endFill=0;" parent="1" source="-fS4lJECkJdT4lTp00I2-8" target="-fS4lJECkJdT4lTp00I2-12" edge="1">
          <mxGeometry relative="1" as="geometry" />
        </mxCell>
        <mxCell id="-fS4lJECkJdT4lTp00I2-8" value="res = my_sh(x, n);" style="shape=process;whiteSpace=wrap;html=1;backgroundOutline=1;" parent="1" vertex="1">
          <mxGeometry x="40" y="490" width="140" height="60" as="geometry" />
        </mxCell>
        <mxCell id="hLjkEMqLYi9RJDod02WA-8" style="edgeStyle=orthogonalEdgeStyle;rounded=0;orthogonalLoop=1;jettySize=auto;html=1;exitX=0.5;exitY=1;exitDx=0;exitDy=0;entryX=0.5;entryY=0;entryDx=0;entryDy=0;endArrow=none;endFill=0;" parent="1" source="-fS4lJECkJdT4lTp00I2-12" target="hLjkEMqLYi9RJDod02WA-1" edge="1">
          <mxGeometry relative="1" as="geometry" />
        </mxCell>
        <mxCell id="-fS4lJECkJdT4lTp00I2-12" value="std_res = sinhl(x);" style="shape=process;whiteSpace=wrap;html=1;backgroundOutline=1;" parent="1" vertex="1">
          <mxGeometry x="40" y="580" width="140" height="60" as="geometry" />
        </mxCell>
        <mxCell id="hLjkEMqLYi9RJDod02WA-9" style="edgeStyle=orthogonalEdgeStyle;rounded=0;orthogonalLoop=1;jettySize=auto;html=1;exitX=0.5;exitY=1;exitDx=0;exitDy=0;entryX=0.5;entryY=0;entryDx=0;entryDy=0;endArrow=none;endFill=0;" parent="1" source="hLjkEMqLYi9RJDod02WA-1" target="hLjkEMqLYi9RJDod02WA-2" edge="1">
          <mxGeometry relative="1" as="geometry" />
        </mxCell>
        <mxCell id="hLjkEMqLYi9RJDod02WA-1" value="&lt;font style=&quot;font-size: 8px;&quot;&gt;printf(&quot;\n\nЗначение, получен-&lt;/font&gt;&lt;div style=&quot;font-size: 8px;&quot;&gt;&lt;font style=&quot;font-size: 8px;&quot;&gt;ное путём разложения в ряд: sh(%Lf) = %Lf\n&quot;, x, res);&lt;/font&gt;&lt;/div&gt;" style="shape=parallelogram;perimeter=parallelogramPerimeter;whiteSpace=wrap;html=1;fixedSize=1;size=20;fontSize=8;" parent="1" vertex="1">
          <mxGeometry x="40" y="670" width="140" height="60" as="geometry" />
        </mxCell>
        <mxCell id="hLjkEMqLYi9RJDod02WA-10" style="edgeStyle=orthogonalEdgeStyle;rounded=0;orthogonalLoop=1;jettySize=auto;html=1;exitX=0.5;exitY=1;exitDx=0;exitDy=0;entryX=0.5;entryY=0;entryDx=0;entryDy=0;endArrow=none;endFill=0;" parent="1" source="hLjkEMqLYi9RJDod02WA-2" target="hLjkEMqLYi9RJDod02WA-3" edge="1">
          <mxGeometry relative="1" as="geometry" />
        </mxCell>
        <mxCell id="hLjkEMqLYi9RJDod02WA-2" value="&lt;font style=&quot;font-size: 8px;&quot;&gt;printf(&quot;Значение, полученное стандартным путём: sh(%Lf) = %Lf\n&quot;, x, std_res);&lt;/font&gt;" style="shape=parallelogram;perimeter=parallelogramPerimeter;whiteSpace=wrap;html=1;fixedSize=1;" parent="1" vertex="1">
          <mxGeometry x="40" y="760" width="140" height="60" as="geometry" />
        </mxCell>
        <mxCell id="hLjkEMqLYi9RJDod02WA-3" value="Конец" style="rounded=1;whiteSpace=wrap;html=1;arcSize=50;" parent="1" vertex="1">
          <mxGeometry x="40" y="850" width="140" height="60" as="geometry" />
        </mxCell>
        <mxCell id="hLjkEMqLYi9RJDod02WA-12" value="1" style="text;html=1;align=center;verticalAlign=middle;resizable=0;points=[];autosize=1;strokeColor=none;fillColor=none;" parent="1" vertex="1">
          <mxGeometry x="95" y="10" width="30" height="30" as="geometry" />
        </mxCell>
        <mxCell id="hLjkEMqLYi9RJDod02WA-14" value="A" style="text;html=1;align=center;verticalAlign=middle;resizable=0;points=[];autosize=1;strokeColor=none;fillColor=none;" parent="1" vertex="1">
          <mxGeometry x="10" y="55" width="30" height="30" as="geometry" />
        </mxCell>
        <mxCell id="hLjkEMqLYi9RJDod02WA-16" value="B" style="text;html=1;align=center;verticalAlign=middle;resizable=0;points=[];autosize=1;strokeColor=none;fillColor=none;" parent="1" vertex="1">
          <mxGeometry x="10" y="145" width="30" height="30" as="geometry" />
        </mxCell>
        <mxCell id="hLjkEMqLYi9RJDod02WA-17" value="C" style="text;html=1;align=center;verticalAlign=middle;resizable=0;points=[];autosize=1;strokeColor=none;fillColor=none;" parent="1" vertex="1">
          <mxGeometry x="10" y="235" width="30" height="30" as="geometry" />
        </mxCell>
        <mxCell id="hLjkEMqLYi9RJDod02WA-18" value="D" style="text;html=1;align=center;verticalAlign=middle;resizable=0;points=[];autosize=1;strokeColor=none;fillColor=none;" parent="1" vertex="1">
          <mxGeometry x="10" y="325" width="30" height="30" as="geometry" />
        </mxCell>
        <mxCell id="hLjkEMqLYi9RJDod02WA-19" value="E" style="text;html=1;align=center;verticalAlign=middle;resizable=0;points=[];autosize=1;strokeColor=none;fillColor=none;" parent="1" vertex="1">
          <mxGeometry x="10" y="415" width="30" height="30" as="geometry" />
        </mxCell>
        <mxCell id="hLjkEMqLYi9RJDod02WA-20" value="F" style="text;html=1;align=center;verticalAlign=middle;resizable=0;points=[];autosize=1;strokeColor=none;fillColor=none;" parent="1" vertex="1">
          <mxGeometry x="10" y="505" width="30" height="30" as="geometry" />
        </mxCell>
        <mxCell id="hLjkEMqLYi9RJDod02WA-21" value="G" style="text;html=1;align=center;verticalAlign=middle;resizable=0;points=[];autosize=1;strokeColor=none;fillColor=none;" parent="1" vertex="1">
          <mxGeometry x="10" y="595" width="30" height="30" as="geometry" />
        </mxCell>
        <mxCell id="hLjkEMqLYi9RJDod02WA-22" value="H" style="text;html=1;align=center;verticalAlign=middle;resizable=0;points=[];autosize=1;strokeColor=none;fillColor=none;" parent="1" vertex="1">
          <mxGeometry x="10" y="685" width="30" height="30" as="geometry" />
        </mxCell>
        <mxCell id="hLjkEMqLYi9RJDod02WA-23" value="I" style="text;html=1;align=center;verticalAlign=middle;resizable=0;points=[];autosize=1;strokeColor=none;fillColor=none;" parent="1" vertex="1">
          <mxGeometry x="10" y="775" width="30" height="30" as="geometry" />
        </mxCell>
        <mxCell id="hLjkEMqLYi9RJDod02WA-24" value="J" style="text;html=1;align=center;verticalAlign=middle;resizable=0;points=[];autosize=1;strokeColor=none;fillColor=none;" parent="1" vertex="1">
          <mxGeometry x="10" y="865" width="30" height="30" as="geometry" />
        </mxCell>
        <mxCell id="hLjkEMqLYi9RJDod02WA-35" style="edgeStyle=orthogonalEdgeStyle;rounded=0;orthogonalLoop=1;jettySize=auto;html=1;exitX=0.5;exitY=1;exitDx=0;exitDy=0;entryX=0.5;entryY=0;entryDx=0;entryDy=0;endArrow=none;endFill=0;" parent="1" source="hLjkEMqLYi9RJDod02WA-25" target="hLjkEMqLYi9RJDod02WA-26" edge="1">
          <mxGeometry relative="1" as="geometry" />
        </mxCell>
        <mxCell id="hLjkEMqLYi9RJDod02WA-25" value="Начало long double my_sh(long double x, unsigned long long n)" style="rounded=1;whiteSpace=wrap;html=1;arcSize=50;" parent="1" vertex="1">
          <mxGeometry x="220" y="40" width="140" height="60" as="geometry" />
        </mxCell>
        <mxCell id="hLjkEMqLYi9RJDod02WA-36" style="edgeStyle=orthogonalEdgeStyle;rounded=0;orthogonalLoop=1;jettySize=auto;html=1;exitX=0.5;exitY=1;exitDx=0;exitDy=0;entryX=0.5;entryY=0;entryDx=0;entryDy=0;endArrow=none;endFill=0;" parent="1" source="hLjkEMqLYi9RJDod02WA-26" target="hLjkEMqLYi9RJDod02WA-27" edge="1">
          <mxGeometry relative="1" as="geometry" />
        </mxCell>
        <mxCell id="hLjkEMqLYi9RJDod02WA-26" value="long double add = x, res = x;" style="rounded=0;whiteSpace=wrap;html=1;" parent="1" vertex="1">
          <mxGeometry x="220" y="130" width="140" height="60" as="geometry" />
        </mxCell>
        <mxCell id="hLjkEMqLYi9RJDod02WA-37" style="edgeStyle=orthogonalEdgeStyle;rounded=0;orthogonalLoop=1;jettySize=auto;html=1;exitX=1;exitY=0.5;exitDx=0;exitDy=0;entryX=0;entryY=0.5;entryDx=0;entryDy=0;endArrow=none;endFill=0;" parent="1" source="hLjkEMqLYi9RJDod02WA-27" target="hLjkEMqLYi9RJDod02WA-28" edge="1">
          <mxGeometry relative="1" as="geometry" />
        </mxCell>
        <mxCell id="hLjkEMqLYi9RJDod02WA-38" style="edgeStyle=orthogonalEdgeStyle;rounded=0;orthogonalLoop=1;jettySize=auto;html=1;exitX=0.5;exitY=1;exitDx=0;exitDy=0;entryX=0.5;entryY=0;entryDx=0;entryDy=0;endArrow=none;endFill=0;" parent="1" source="hLjkEMqLYi9RJDod02WA-27" edge="1">
          <mxGeometry relative="1" as="geometry">
            <mxPoint x="290" y="310" as="targetPoint" />
          </mxGeometry>
        </mxCell>
        <mxCell id="hLjkEMqLYi9RJDod02WA-27" value="n == 0" style="rhombus;whiteSpace=wrap;html=1;" parent="1" vertex="1">
          <mxGeometry x="220" y="220" width="140" height="60" as="geometry" />
        </mxCell>
        <mxCell id="hLjkEMqLYi9RJDod02WA-28" value="return 0;" style="rounded=1;whiteSpace=wrap;html=1;arcSize=50;" parent="1" vertex="1">
          <mxGeometry x="400" y="220" width="140" height="60" as="geometry" />
        </mxCell>
        <mxCell id="hLjkEMqLYi9RJDod02WA-39" style="edgeStyle=orthogonalEdgeStyle;rounded=0;orthogonalLoop=1;jettySize=auto;html=1;exitX=0.5;exitY=1;exitDx=0;exitDy=0;entryX=0.5;entryY=0;entryDx=0;entryDy=0;endArrow=none;endFill=0;" parent="1" target="hLjkEMqLYi9RJDod02WA-30" edge="1">
          <mxGeometry relative="1" as="geometry">
            <mxPoint x="290" y="370" as="sourcePoint" />
          </mxGeometry>
        </mxCell>
        <mxCell id="ewJLbyHBn61T6lgIeoCp-2" style="edgeStyle=orthogonalEdgeStyle;rounded=0;orthogonalLoop=1;jettySize=auto;html=1;exitX=1;exitY=0.5;exitDx=0;exitDy=0;entryX=0.5;entryY=0;entryDx=0;entryDy=0;" parent="1" target="hLjkEMqLYi9RJDod02WA-34" edge="1">
          <mxGeometry relative="1" as="geometry">
            <Array as="points">
              <mxPoint x="370" y="340" />
              <mxPoint x="370" y="660" />
              <mxPoint x="290" y="660" />
            </Array>
            <mxPoint x="350" y="340" as="sourcePoint" />
          </mxGeometry>
        </mxCell>
        <mxCell id="hLjkEMqLYi9RJDod02WA-40" style="edgeStyle=orthogonalEdgeStyle;rounded=0;orthogonalLoop=1;jettySize=auto;html=1;exitX=0.5;exitY=1;exitDx=0;exitDy=0;entryX=0.5;entryY=0;entryDx=0;entryDy=0;endArrow=none;endFill=0;" parent="1" source="hLjkEMqLYi9RJDod02WA-30" target="hLjkEMqLYi9RJDod02WA-31" edge="1">
          <mxGeometry relative="1" as="geometry" />
        </mxCell>
        <mxCell id="hLjkEMqLYi9RJDod02WA-30" value="add *= (x * x);" style="rounded=0;whiteSpace=wrap;html=1;" parent="1" vertex="1">
          <mxGeometry x="220" y="400" width="140" height="60" as="geometry" />
        </mxCell>
        <mxCell id="hLjkEMqLYi9RJDod02WA-41" style="edgeStyle=orthogonalEdgeStyle;rounded=0;orthogonalLoop=1;jettySize=auto;html=1;exitX=0.5;exitY=1;exitDx=0;exitDy=0;entryX=0.5;entryY=0;entryDx=0;entryDy=0;endArrow=none;endFill=0;" parent="1" source="hLjkEMqLYi9RJDod02WA-31" target="hLjkEMqLYi9RJDod02WA-32" edge="1">
          <mxGeometry relative="1" as="geometry" />
        </mxCell>
        <mxCell id="hLjkEMqLYi9RJDod02WA-31" value="add /= (2 * i * ( 2 * i + 1));" style="rounded=0;whiteSpace=wrap;html=1;" parent="1" vertex="1">
          <mxGeometry x="220" y="490" width="140" height="60" as="geometry" />
        </mxCell>
        <mxCell id="ewJLbyHBn61T6lgIeoCp-1" style="edgeStyle=orthogonalEdgeStyle;rounded=0;orthogonalLoop=1;jettySize=auto;html=1;exitX=0.5;exitY=1;exitDx=0;exitDy=0;entryX=0;entryY=0.5;entryDx=0;entryDy=0;" parent="1" source="hLjkEMqLYi9RJDod02WA-32" target="aHxy3rtNDQFJLXt5Vxp8-1" edge="1">
          <mxGeometry relative="1" as="geometry">
            <Array as="points">
              <mxPoint x="290" y="650" />
              <mxPoint x="210" y="650" />
              <mxPoint x="210" y="340" />
            </Array>
            <mxPoint x="230" y="340" as="targetPoint" />
          </mxGeometry>
        </mxCell>
        <mxCell id="hLjkEMqLYi9RJDod02WA-32" value="res += add;" style="rounded=0;whiteSpace=wrap;html=1;" parent="1" vertex="1">
          <mxGeometry x="220" y="580" width="140" height="60" as="geometry" />
        </mxCell>
        <mxCell id="hLjkEMqLYi9RJDod02WA-34" value="return res;" style="rounded=1;whiteSpace=wrap;html=1;arcSize=50;" parent="1" vertex="1">
          <mxGeometry x="220" y="670" width="140" height="60" as="geometry" />
        </mxCell>
        <mxCell id="hLjkEMqLYi9RJDod02WA-43" value="да" style="text;html=1;align=center;verticalAlign=middle;resizable=0;points=[];autosize=1;strokeColor=none;fillColor=none;" parent="1" vertex="1">
          <mxGeometry x="350" y="228" width="40" height="30" as="geometry" />
        </mxCell>
        <mxCell id="hLjkEMqLYi9RJDod02WA-44" value="нет" style="text;html=1;align=center;verticalAlign=middle;resizable=0;points=[];autosize=1;strokeColor=none;fillColor=none;" parent="1" vertex="1">
          <mxGeometry x="290" y="270" width="40" height="30" as="geometry" />
        </mxCell>
        <mxCell id="hLjkEMqLYi9RJDod02WA-45" value="2" style="text;html=1;align=center;verticalAlign=middle;resizable=0;points=[];autosize=1;strokeColor=none;fillColor=none;" parent="1" vertex="1">
          <mxGeometry x="275" y="10" width="30" height="30" as="geometry" />
        </mxCell>
        <mxCell id="hLjkEMqLYi9RJDod02WA-46" value="3" style="text;html=1;align=center;verticalAlign=middle;resizable=0;points=[];autosize=1;strokeColor=none;fillColor=none;" parent="1" vertex="1">
          <mxGeometry x="455" y="10" width="30" height="30" as="geometry" />
        </mxCell>
        <mxCell id="hLjkEMqLYi9RJDod02WA-47" value="Лабораторная работа №2 Вариант №52 Программа №1 Б24-516 Молчанов Степан" style="text;html=1;align=center;verticalAlign=middle;resizable=0;points=[];autosize=1;strokeColor=none;fillColor=none;rotation=0;" parent="1" vertex="1">
          <mxGeometry x="337" y="1139" width="490" height="30" as="geometry" />
        </mxCell>
        <mxCell id="X03TJZQ4k9Tn0g4TUBYW-2" value="&lt;font style=&quot;font-size: 9px;&quot;&gt;check_ldouble(&amp;amp;x,&amp;nbsp;&lt;/font&gt;&lt;div style=&quot;font-size: 9px;&quot;&gt;&lt;font style=&quot;font-size: 9px;&quot;&gt;&quot;Введите любое число: &quot;);&lt;/font&gt;&lt;/div&gt;" style="shape=parallelogram;perimeter=parallelogramPerimeter;whiteSpace=wrap;html=1;fixedSize=1;fontSize=9;" parent="1" vertex="1">
          <mxGeometry x="40" y="310" width="140" height="60" as="geometry" />
        </mxCell>
        <mxCell id="X03TJZQ4k9Tn0g4TUBYW-3" value="&lt;font style=&quot;font-size: 8px;&quot;&gt;check_lint(&amp;amp;n, &quot;Введите&amp;nbsp;&lt;/font&gt;&lt;div&gt;&lt;font style=&quot;font-size: 8px;&quot;&gt;количество членов ряда (целое число от 1 до 10): &quot;, 0);&lt;/font&gt;&lt;/div&gt;" style="shape=parallelogram;perimeter=parallelogramPerimeter;whiteSpace=wrap;html=1;fixedSize=1;" parent="1" vertex="1">
          <mxGeometry x="40" y="400" width="140" height="60" as="geometry" />
        </mxCell>
        <mxCell id="aHxy3rtNDQFJLXt5Vxp8-1" value="int i = 1;&lt;div&gt;i &amp;lt; n;&lt;/div&gt;&lt;div&gt;i++&lt;/div&gt;" style="shape=hexagon;perimeter=hexagonPerimeter2;whiteSpace=wrap;html=1;fixedSize=1;" vertex="1" parent="1">
          <mxGeometry x="220" y="310" width="140" height="60" as="geometry" />
        </mxCell>
      </root>
    </mxGraphModel>
  </diagram>
  <diagram id="oDjzYUQ0fyRYyr4h6msy" name="Страница — 2">
    <mxGraphModel dx="1434" dy="756" grid="1" gridSize="10" guides="1" tooltips="1" connect="1" arrows="1" fold="1" page="1" pageScale="1" pageWidth="827" pageHeight="1169" math="0" shadow="0">
      <root>
        <mxCell id="0" />
        <mxCell id="1" parent="0" />
        <mxCell id="4z_FSHQo15ieUY1mOPt3-13" style="edgeStyle=orthogonalEdgeStyle;rounded=0;orthogonalLoop=1;jettySize=auto;html=1;exitX=0.5;exitY=1;exitDx=0;exitDy=0;entryX=0.5;entryY=0;entryDx=0;entryDy=0;endArrow=none;endFill=0;" parent="1" source="4z_FSHQo15ieUY1mOPt3-1" target="4z_FSHQo15ieUY1mOPt3-2" edge="1">
          <mxGeometry relative="1" as="geometry" />
        </mxCell>
        <mxCell id="4z_FSHQo15ieUY1mOPt3-1" value="Начало" style="rounded=1;whiteSpace=wrap;html=1;arcSize=50;" parent="1" vertex="1">
          <mxGeometry x="40" y="40" width="140" height="60" as="geometry" />
        </mxCell>
        <mxCell id="4z_FSHQo15ieUY1mOPt3-14" style="edgeStyle=orthogonalEdgeStyle;rounded=0;orthogonalLoop=1;jettySize=auto;html=1;exitX=0.5;exitY=1;exitDx=0;exitDy=0;entryX=0.5;entryY=0;entryDx=0;entryDy=0;endArrow=none;endFill=0;" parent="1" source="4z_FSHQo15ieUY1mOPt3-2" target="4z_FSHQo15ieUY1mOPt3-3" edge="1">
          <mxGeometry relative="1" as="geometry" />
        </mxCell>
        <mxCell id="4z_FSHQo15ieUY1mOPt3-2" value="long double x, accuracy, res, std_res;" style="rounded=0;whiteSpace=wrap;html=1;" parent="1" vertex="1">
          <mxGeometry x="40" y="130" width="140" height="60" as="geometry" />
        </mxCell>
        <mxCell id="4z_FSHQo15ieUY1mOPt3-15" style="edgeStyle=orthogonalEdgeStyle;rounded=0;orthogonalLoop=1;jettySize=auto;html=1;exitX=0.5;exitY=1;exitDx=0;exitDy=0;entryX=0.5;entryY=0;entryDx=0;entryDy=0;endArrow=none;endFill=0;" parent="1" source="4z_FSHQo15ieUY1mOPt3-3" target="4z_FSHQo15ieUY1mOPt3-4" edge="1">
          <mxGeometry relative="1" as="geometry">
            <mxPoint x="110" y="290" as="sourcePoint" />
          </mxGeometry>
        </mxCell>
        <mxCell id="4z_FSHQo15ieUY1mOPt3-3" value="int count = 0;" style="rounded=0;whiteSpace=wrap;html=1;" parent="1" vertex="1">
          <mxGeometry x="40" y="220" width="140" height="60" as="geometry" />
        </mxCell>
        <mxCell id="4z_FSHQo15ieUY1mOPt3-16" style="edgeStyle=orthogonalEdgeStyle;rounded=0;orthogonalLoop=1;jettySize=auto;html=1;exitX=0.5;exitY=1;exitDx=0;exitDy=0;entryX=0.5;entryY=0;entryDx=0;entryDy=0;endArrow=none;endFill=0;" parent="1" source="4z_FSHQo15ieUY1mOPt3-4" target="4z_FSHQo15ieUY1mOPt3-5" edge="1">
          <mxGeometry relative="1" as="geometry" />
        </mxCell>
        <mxCell id="4z_FSHQo15ieUY1mOPt3-4" value="&lt;font style=&quot;font-size: 10px;&quot;&gt;&lt;font style=&quot;font-size: 10px;&quot;&gt;check_double(&amp;amp;x,&amp;nbsp;&lt;/font&gt;&lt;span style=&quot;background-color: initial;&quot;&gt;&quot;введите любое число: &quot;);&lt;/span&gt;&lt;/font&gt;" style="shape=parallelogram;perimeter=parallelogramPerimeter;whiteSpace=wrap;html=1;fixedSize=1;size=10;" parent="1" vertex="1">
          <mxGeometry x="40" y="310" width="140" height="60" as="geometry" />
        </mxCell>
        <mxCell id="4z_FSHQo15ieUY1mOPt3-17" style="edgeStyle=orthogonalEdgeStyle;rounded=0;orthogonalLoop=1;jettySize=auto;html=1;exitX=0.5;exitY=1;exitDx=0;exitDy=0;entryX=0.5;entryY=0;entryDx=0;entryDy=0;endArrow=none;endFill=0;" parent="1" source="4z_FSHQo15ieUY1mOPt3-5" target="4z_FSHQo15ieUY1mOPt3-6" edge="1">
          <mxGeometry relative="1" as="geometry" />
        </mxCell>
        <mxCell id="4z_FSHQo15ieUY1mOPt3-5" value="&lt;font style=&quot;font-size: 8px;&quot;&gt;check_accuracy(&amp;amp;accuracy,&amp;nbsp;&lt;/font&gt;&lt;div&gt;&lt;font style=&quot;font-size: 8px;&quot;&gt;&quot;Введите точность вычисления&amp;nbsp;&lt;/font&gt;&lt;/div&gt;&lt;div&gt;&lt;font style=&quot;font-size: 8px;&quot;&gt;его гиперболического синуса: &quot;,&lt;/font&gt;&lt;/div&gt;&lt;div&gt;&lt;font style=&quot;font-size: 8px;&quot;&gt;&amp;nbsp;0);&lt;/font&gt;&lt;/div&gt;" style="shape=parallelogram;perimeter=parallelogramPerimeter;whiteSpace=wrap;html=1;fixedSize=1;size=10;" parent="1" vertex="1">
          <mxGeometry x="40" y="400" width="140" height="60" as="geometry" />
        </mxCell>
        <mxCell id="4z_FSHQo15ieUY1mOPt3-18" style="edgeStyle=orthogonalEdgeStyle;rounded=0;orthogonalLoop=1;jettySize=auto;html=1;exitX=0.5;exitY=1;exitDx=0;exitDy=0;entryX=0.5;entryY=0;entryDx=0;entryDy=0;endArrow=none;endFill=0;" parent="1" source="4z_FSHQo15ieUY1mOPt3-6" target="4z_FSHQo15ieUY1mOPt3-7" edge="1">
          <mxGeometry relative="1" as="geometry" />
        </mxCell>
        <mxCell id="4z_FSHQo15ieUY1mOPt3-6" value="res = my_sh(x, accuracy, &amp;amp;count);" style="shape=process;whiteSpace=wrap;html=1;backgroundOutline=1;" parent="1" vertex="1">
          <mxGeometry x="40" y="490" width="140" height="60" as="geometry" />
        </mxCell>
        <mxCell id="4z_FSHQo15ieUY1mOPt3-20" style="edgeStyle=orthogonalEdgeStyle;rounded=0;orthogonalLoop=1;jettySize=auto;html=1;exitX=0.5;exitY=1;exitDx=0;exitDy=0;entryX=0.5;entryY=0;entryDx=0;entryDy=0;endArrow=none;endFill=0;" parent="1" source="4z_FSHQo15ieUY1mOPt3-7" target="4z_FSHQo15ieUY1mOPt3-8" edge="1">
          <mxGeometry relative="1" as="geometry" />
        </mxCell>
        <mxCell id="4z_FSHQo15ieUY1mOPt3-7" value="std_res = sinhl(x);" style="shape=process;whiteSpace=wrap;html=1;backgroundOutline=1;" parent="1" vertex="1">
          <mxGeometry x="40" y="580" width="140" height="60" as="geometry" />
        </mxCell>
        <mxCell id="4z_FSHQo15ieUY1mOPt3-21" style="edgeStyle=orthogonalEdgeStyle;rounded=0;orthogonalLoop=1;jettySize=auto;html=1;exitX=0.5;exitY=1;exitDx=0;exitDy=0;entryX=0.5;entryY=0;entryDx=0;entryDy=0;endArrow=none;endFill=0;" parent="1" source="4z_FSHQo15ieUY1mOPt3-8" target="4z_FSHQo15ieUY1mOPt3-9" edge="1">
          <mxGeometry relative="1" as="geometry">
            <mxPoint x="110" y="740" as="sourcePoint" />
          </mxGeometry>
        </mxCell>
        <mxCell id="4z_FSHQo15ieUY1mOPt3-8" value="&lt;font style=&quot;font-size: 8px;&quot;&gt;printf(&quot;\nЗначение, полученное методом разложения в ряд, с точностью %Lf: sh(%Lf) = %Lf\n&quot;, accuracy, x, res);&lt;/font&gt;" style="shape=parallelogram;perimeter=parallelogramPerimeter;whiteSpace=wrap;html=1;fixedSize=1;size=10;" parent="1" vertex="1">
          <mxGeometry x="40" y="670" width="140" height="60" as="geometry" />
        </mxCell>
        <mxCell id="4z_FSHQo15ieUY1mOPt3-22" style="edgeStyle=orthogonalEdgeStyle;rounded=0;orthogonalLoop=1;jettySize=auto;html=1;exitX=0.5;exitY=1;exitDx=0;exitDy=0;entryX=0.5;entryY=0;entryDx=0;entryDy=0;endArrow=none;endFill=0;" parent="1" source="4z_FSHQo15ieUY1mOPt3-9" target="4z_FSHQo15ieUY1mOPt3-11" edge="1">
          <mxGeometry relative="1" as="geometry">
            <mxPoint x="110" y="830" as="sourcePoint" />
          </mxGeometry>
        </mxCell>
        <mxCell id="4z_FSHQo15ieUY1mOPt3-9" value="printf(&quot;Количество членов ряда для вычисления: %d\n&quot;, count);" style="shape=parallelogram;perimeter=parallelogramPerimeter;whiteSpace=wrap;html=1;fixedSize=1;size=10;" parent="1" vertex="1">
          <mxGeometry x="40" y="760" width="140" height="60" as="geometry" />
        </mxCell>
        <mxCell id="4z_FSHQo15ieUY1mOPt3-23" style="edgeStyle=orthogonalEdgeStyle;rounded=0;orthogonalLoop=1;jettySize=auto;html=1;exitX=0.5;exitY=1;exitDx=0;exitDy=0;entryX=0.5;entryY=0;entryDx=0;entryDy=0;endArrow=none;endFill=0;" parent="1" source="4z_FSHQo15ieUY1mOPt3-11" target="4z_FSHQo15ieUY1mOPt3-12" edge="1">
          <mxGeometry relative="1" as="geometry" />
        </mxCell>
        <mxCell id="4z_FSHQo15ieUY1mOPt3-11" value="&lt;font style=&quot;font-size: 8px;&quot;&gt;printf(&quot;\n\nЗначение, полученное стандартным методом: sh(%Lf) = %Lf\n&quot;, x, std_res);&lt;/font&gt;" style="shape=parallelogram;perimeter=parallelogramPerimeter;whiteSpace=wrap;html=1;fixedSize=1;size=10;" parent="1" vertex="1">
          <mxGeometry x="40" y="850" width="140" height="60" as="geometry" />
        </mxCell>
        <mxCell id="4z_FSHQo15ieUY1mOPt3-12" value="Конец" style="rounded=1;whiteSpace=wrap;html=1;arcSize=50;" parent="1" vertex="1">
          <mxGeometry x="40" y="940" width="140" height="60" as="geometry" />
        </mxCell>
        <mxCell id="4z_FSHQo15ieUY1mOPt3-24" value="1" style="text;html=1;align=center;verticalAlign=middle;resizable=0;points=[];autosize=1;strokeColor=none;fillColor=none;" parent="1" vertex="1">
          <mxGeometry x="95" y="10" width="30" height="30" as="geometry" />
        </mxCell>
        <mxCell id="4z_FSHQo15ieUY1mOPt3-25" value="A" style="text;html=1;align=center;verticalAlign=middle;resizable=0;points=[];autosize=1;strokeColor=none;fillColor=none;" parent="1" vertex="1">
          <mxGeometry x="10" y="55" width="30" height="30" as="geometry" />
        </mxCell>
        <mxCell id="4z_FSHQo15ieUY1mOPt3-26" value="B" style="text;html=1;align=center;verticalAlign=middle;resizable=0;points=[];autosize=1;strokeColor=none;fillColor=none;" parent="1" vertex="1">
          <mxGeometry x="10" y="145" width="30" height="30" as="geometry" />
        </mxCell>
        <mxCell id="4z_FSHQo15ieUY1mOPt3-28" value="C" style="text;html=1;align=center;verticalAlign=middle;resizable=0;points=[];autosize=1;strokeColor=none;fillColor=none;" parent="1" vertex="1">
          <mxGeometry x="10" y="235" width="30" height="30" as="geometry" />
        </mxCell>
        <mxCell id="4z_FSHQo15ieUY1mOPt3-29" value="D" style="text;html=1;align=center;verticalAlign=middle;resizable=0;points=[];autosize=1;strokeColor=none;fillColor=none;" parent="1" vertex="1">
          <mxGeometry x="10" y="315" width="30" height="30" as="geometry" />
        </mxCell>
        <mxCell id="4z_FSHQo15ieUY1mOPt3-30" value="E" style="text;html=1;align=center;verticalAlign=middle;resizable=0;points=[];autosize=1;strokeColor=none;fillColor=none;" parent="1" vertex="1">
          <mxGeometry x="10" y="415" width="30" height="30" as="geometry" />
        </mxCell>
        <mxCell id="4z_FSHQo15ieUY1mOPt3-31" value="F" style="text;html=1;align=center;verticalAlign=middle;resizable=0;points=[];autosize=1;strokeColor=none;fillColor=none;" parent="1" vertex="1">
          <mxGeometry x="10" y="505" width="30" height="30" as="geometry" />
        </mxCell>
        <mxCell id="4z_FSHQo15ieUY1mOPt3-32" value="G" style="text;html=1;align=center;verticalAlign=middle;resizable=0;points=[];autosize=1;strokeColor=none;fillColor=none;" parent="1" vertex="1">
          <mxGeometry x="10" y="595" width="30" height="30" as="geometry" />
        </mxCell>
        <mxCell id="4z_FSHQo15ieUY1mOPt3-33" value="H" style="text;html=1;align=center;verticalAlign=middle;resizable=0;points=[];autosize=1;strokeColor=none;fillColor=none;" parent="1" vertex="1">
          <mxGeometry x="10" y="685" width="30" height="30" as="geometry" />
        </mxCell>
        <mxCell id="4z_FSHQo15ieUY1mOPt3-35" value="I" style="text;html=1;align=center;verticalAlign=middle;resizable=0;points=[];autosize=1;strokeColor=none;fillColor=none;" parent="1" vertex="1">
          <mxGeometry x="10" y="775" width="30" height="30" as="geometry" />
        </mxCell>
        <mxCell id="4z_FSHQo15ieUY1mOPt3-36" value="J" style="text;html=1;align=center;verticalAlign=middle;resizable=0;points=[];autosize=1;strokeColor=none;fillColor=none;" parent="1" vertex="1">
          <mxGeometry x="10" y="865" width="30" height="30" as="geometry" />
        </mxCell>
        <mxCell id="4z_FSHQo15ieUY1mOPt3-37" value="K" style="text;html=1;align=center;verticalAlign=middle;resizable=0;points=[];autosize=1;strokeColor=none;fillColor=none;" parent="1" vertex="1">
          <mxGeometry x="10" y="960" width="30" height="30" as="geometry" />
        </mxCell>
        <mxCell id="4z_FSHQo15ieUY1mOPt3-47" style="edgeStyle=orthogonalEdgeStyle;rounded=0;orthogonalLoop=1;jettySize=auto;html=1;exitX=0.5;exitY=1;exitDx=0;exitDy=0;entryX=0.5;entryY=0;entryDx=0;entryDy=0;endArrow=none;endFill=0;" parent="1" source="4z_FSHQo15ieUY1mOPt3-38" target="4z_FSHQo15ieUY1mOPt3-40" edge="1">
          <mxGeometry relative="1" as="geometry" />
        </mxCell>
        <mxCell id="4z_FSHQo15ieUY1mOPt3-38" value="Начало my_sh(long double x, long souble accuracy, int* count)" style="rounded=1;whiteSpace=wrap;html=1;arcSize=50;" parent="1" vertex="1">
          <mxGeometry x="220" y="40" width="140" height="60" as="geometry" />
        </mxCell>
        <mxCell id="4z_FSHQo15ieUY1mOPt3-39" value="2" style="text;html=1;align=center;verticalAlign=middle;resizable=0;points=[];autosize=1;strokeColor=none;fillColor=none;" parent="1" vertex="1">
          <mxGeometry x="275" y="10" width="30" height="30" as="geometry" />
        </mxCell>
        <mxCell id="4z_FSHQo15ieUY1mOPt3-48" style="edgeStyle=orthogonalEdgeStyle;rounded=0;orthogonalLoop=1;jettySize=auto;html=1;exitX=0.5;exitY=1;exitDx=0;exitDy=0;entryX=0.5;entryY=0;entryDx=0;entryDy=0;endArrow=none;endFill=0;" parent="1" source="4z_FSHQo15ieUY1mOPt3-40" target="4z_FSHQo15ieUY1mOPt3-41" edge="1">
          <mxGeometry relative="1" as="geometry" />
        </mxCell>
        <mxCell id="4z_FSHQo15ieUY1mOPt3-40" value="&lt;font style=&quot;font-size: 13px;&quot;&gt;long double res = x, add = x;&lt;/font&gt;" style="rounded=0;whiteSpace=wrap;html=1;" parent="1" vertex="1">
          <mxGeometry x="220" y="130" width="140" height="60" as="geometry" />
        </mxCell>
        <mxCell id="4z_FSHQo15ieUY1mOPt3-49" style="edgeStyle=orthogonalEdgeStyle;rounded=0;orthogonalLoop=1;jettySize=auto;html=1;exitX=0.5;exitY=1;exitDx=0;exitDy=0;entryX=0.5;entryY=0;entryDx=0;entryDy=0;endArrow=none;endFill=0;" parent="1" source="4z_FSHQo15ieUY1mOPt3-41" target="4z_FSHQo15ieUY1mOPt3-42" edge="1">
          <mxGeometry relative="1" as="geometry">
            <mxPoint x="290" y="290" as="sourcePoint" />
          </mxGeometry>
        </mxCell>
        <mxCell id="4z_FSHQo15ieUY1mOPt3-58" style="edgeStyle=orthogonalEdgeStyle;rounded=0;orthogonalLoop=1;jettySize=auto;html=1;exitX=1;exitY=0.5;exitDx=0;exitDy=0;entryX=0.5;entryY=0;entryDx=0;entryDy=0;" parent="1" source="4z_FSHQo15ieUY1mOPt3-41" target="4z_FSHQo15ieUY1mOPt3-55" edge="1">
          <mxGeometry relative="1" as="geometry">
            <Array as="points">
              <mxPoint x="370" y="250" />
              <mxPoint x="370" y="750" />
              <mxPoint x="290" y="750" />
            </Array>
          </mxGeometry>
        </mxCell>
        <mxCell id="4z_FSHQo15ieUY1mOPt3-41" value="int i = 1;&lt;br&gt;;&lt;br&gt;i++" style="shape=hexagon;perimeter=hexagonPerimeter2;whiteSpace=wrap;html=1;fixedSize=1;" parent="1" vertex="1">
          <mxGeometry x="220" y="220" width="140" height="60" as="geometry" />
        </mxCell>
        <mxCell id="4z_FSHQo15ieUY1mOPt3-50" style="edgeStyle=orthogonalEdgeStyle;rounded=0;orthogonalLoop=1;jettySize=auto;html=1;exitX=0.5;exitY=1;exitDx=0;exitDy=0;entryX=0.5;entryY=0;entryDx=0;entryDy=0;endArrow=none;endFill=0;" parent="1" source="4z_FSHQo15ieUY1mOPt3-42" target="4z_FSHQo15ieUY1mOPt3-43" edge="1">
          <mxGeometry relative="1" as="geometry" />
        </mxCell>
        <mxCell id="4z_FSHQo15ieUY1mOPt3-42" value="add *= (x * x);" style="rounded=0;whiteSpace=wrap;html=1;" parent="1" vertex="1">
          <mxGeometry x="220" y="310" width="140" height="60" as="geometry" />
        </mxCell>
        <mxCell id="4z_FSHQo15ieUY1mOPt3-51" style="edgeStyle=orthogonalEdgeStyle;rounded=0;orthogonalLoop=1;jettySize=auto;html=1;exitX=0.5;exitY=1;exitDx=0;exitDy=0;entryX=0.5;entryY=0;entryDx=0;entryDy=0;endArrow=none;endFill=0;" parent="1" source="4z_FSHQo15ieUY1mOPt3-43" target="4z_FSHQo15ieUY1mOPt3-44" edge="1">
          <mxGeometry relative="1" as="geometry" />
        </mxCell>
        <mxCell id="4z_FSHQo15ieUY1mOPt3-43" value="add /= (2 * i * (2 * i + 1));" style="rounded=0;whiteSpace=wrap;html=1;" parent="1" vertex="1">
          <mxGeometry x="220" y="400" width="140" height="60" as="geometry" />
        </mxCell>
        <mxCell id="4z_FSHQo15ieUY1mOPt3-52" style="edgeStyle=orthogonalEdgeStyle;rounded=0;orthogonalLoop=1;jettySize=auto;html=1;exitX=0.5;exitY=1;exitDx=0;exitDy=0;entryX=0.5;entryY=0;entryDx=0;entryDy=0;endArrow=none;endFill=0;" parent="1" source="4z_FSHQo15ieUY1mOPt3-44" target="4z_FSHQo15ieUY1mOPt3-45" edge="1">
          <mxGeometry relative="1" as="geometry" />
        </mxCell>
        <mxCell id="4z_FSHQo15ieUY1mOPt3-44" value="res += add;" style="rounded=0;whiteSpace=wrap;html=1;" parent="1" vertex="1">
          <mxGeometry x="220" y="490" width="140" height="60" as="geometry" />
        </mxCell>
        <mxCell id="4z_FSHQo15ieUY1mOPt3-53" style="edgeStyle=orthogonalEdgeStyle;rounded=0;orthogonalLoop=1;jettySize=auto;html=1;exitX=0.5;exitY=1;exitDx=0;exitDy=0;entryX=0.5;entryY=0;entryDx=0;entryDy=0;endArrow=none;endFill=0;" parent="1" source="4z_FSHQo15ieUY1mOPt3-45" target="4z_FSHQo15ieUY1mOPt3-46" edge="1">
          <mxGeometry relative="1" as="geometry" />
        </mxCell>
        <mxCell id="4z_FSHQo15ieUY1mOPt3-59" style="edgeStyle=orthogonalEdgeStyle;rounded=0;orthogonalLoop=1;jettySize=auto;html=1;exitX=1;exitY=0.5;exitDx=0;exitDy=0;endArrow=none;endFill=0;" parent="1" source="4z_FSHQo15ieUY1mOPt3-45" edge="1">
          <mxGeometry relative="1" as="geometry">
            <mxPoint x="370" y="610.4000000000001" as="targetPoint" />
          </mxGeometry>
        </mxCell>
        <mxCell id="4z_FSHQo15ieUY1mOPt3-45" value="add &amp;lt; accuracy" style="rhombus;whiteSpace=wrap;html=1;" parent="1" vertex="1">
          <mxGeometry x="220" y="580" width="140" height="60" as="geometry" />
        </mxCell>
        <mxCell id="4z_FSHQo15ieUY1mOPt3-54" style="edgeStyle=orthogonalEdgeStyle;rounded=0;orthogonalLoop=1;jettySize=auto;html=1;exitX=0.5;exitY=1;exitDx=0;exitDy=0;entryX=0;entryY=0.5;entryDx=0;entryDy=0;" parent="1" source="4z_FSHQo15ieUY1mOPt3-46" target="4z_FSHQo15ieUY1mOPt3-41" edge="1">
          <mxGeometry relative="1" as="geometry">
            <mxPoint x="220" y="260" as="targetPoint" />
            <Array as="points">
              <mxPoint x="290" y="740" />
              <mxPoint x="210" y="740" />
              <mxPoint x="210" y="250" />
            </Array>
          </mxGeometry>
        </mxCell>
        <mxCell id="4z_FSHQo15ieUY1mOPt3-46" value="*count = i;" style="rounded=0;whiteSpace=wrap;html=1;" parent="1" vertex="1">
          <mxGeometry x="220" y="670" width="140" height="60" as="geometry" />
        </mxCell>
        <mxCell id="4z_FSHQo15ieUY1mOPt3-55" value="return res;" style="rounded=1;whiteSpace=wrap;html=1;arcSize=50;" parent="1" vertex="1">
          <mxGeometry x="220" y="760" width="140" height="60" as="geometry" />
        </mxCell>
        <mxCell id="4z_FSHQo15ieUY1mOPt3-61" value="да" style="text;html=1;align=center;verticalAlign=middle;resizable=0;points=[];autosize=1;strokeColor=none;fillColor=none;" parent="1" vertex="1">
          <mxGeometry x="340" y="585" width="40" height="30" as="geometry" />
        </mxCell>
        <mxCell id="4z_FSHQo15ieUY1mOPt3-62" value="нет" style="text;html=1;align=center;verticalAlign=middle;resizable=0;points=[];autosize=1;strokeColor=none;fillColor=none;" parent="1" vertex="1">
          <mxGeometry x="280" y="630" width="40" height="30" as="geometry" />
        </mxCell>
        <mxCell id="qjB-7U9_WGuoafe47Lx3-1" value="Лабораторная работа №2 Вариант №52 Программа №2 Б24-516 Молчанов Степан" style="text;html=1;align=center;verticalAlign=middle;resizable=0;points=[];autosize=1;strokeColor=none;fillColor=none;" parent="1" vertex="1">
          <mxGeometry x="337" y="1139" width="490" height="30" as="geometry" />
        </mxCell>
      </root>
    </mxGraphModel>
  </diagram>
</mxfile>
